<?xml version="1.0" encoding="UTF-8"?>
<svg xmlns="http://www.w3.org/2000/svg" xmlns:xlink="http://www.w3.org/1999/xlink" width="512px" height="512px" viewBox="0 0 512 512" version="1.1">
<g id="surface1">
<path style=" stroke:none;fill-rule:nonzero;fill:rgb(0%,0%,0%);fill-opacity:1;" d="M 1.1875 255.289062 L 1.1875 510.574219 L 511.761719 510.574219 L 511.523438 255.523438 L 511.167969 0.59375 L 256.238281 0.238281 L 1.1875 0 Z M 496.089844 28.734375 C 496.207031 35.859375 496.207031 41.558594 496.089844 41.558594 C 495.851562 41.558594 489.441406 42.390625 481.722656 43.339844 C 403.710938 53.074219 336.625 94.515625 292.808594 160.058594 C 274.285156 187.84375 259.324219 224.652344 253.269531 257.664062 L 252.199219 263.003906 L 235.457031 264.429688 C 144.980469 271.910156 66.492188 323.917969 23.273438 404.898438 L 16.625 417.367188 L 16.625 260.15625 L 31.109375 259.800781 L 45.714844 259.445312 L 47.019531 247.570312 C 53.3125 194.730469 83.710938 145.691406 128.710938 116.125 C 165.757812 91.785156 208.148438 81.929688 252.675781 87.390625 L 258.851562 88.222656 L 258.851562 57.230469 L 251.488281 56.28125 C 238.902344 54.855469 210.40625 55.449219 197.105469 57.589844 C 106.507812 71.835938 37.996094 137.378906 19 227.859375 C 16.859375 237.953125 16.742188 237.359375 16.742188 126.695312 L 16.625 15.4375 L 256.238281 15.671875 L 495.734375 16.03125 Z M 496.328125 103.300781 C 496.328125 116.363281 495.851562 127.167969 495.257812 127.523438 C 494.664062 128 489.441406 129.070312 483.621094 130.019531 C 436.601562 138.210938 396.109375 163.503906 368.207031 202.332031 C 355.265625 220.257812 344.699219 243.652344 340.066406 264.191406 C 339 269.417969 337.691406 274.046875 337.335938 274.523438 C 336.980469 275 330.804688 273.8125 323.5625 271.910156 C 316.4375 270.128906 306.226562 267.875 301 267.042969 C 295.777344 266.210938 291.027344 265.144531 290.433594 264.667969 C 288.890625 263.363281 295.300781 239.496094 301.714844 223.226562 C 313.824219 192.117188 328.429688 170.152344 353.839844 144.742188 C 367.257812 131.207031 374.261719 125.386719 385.898438 117.550781 C 410.953125 100.808594 438.261719 89.054688 466.167969 83.117188 C 478.515625 80.503906 493.832031 78.484375 495.496094 79.316406 C 495.96875 79.554688 496.328125 90.359375 496.328125 103.300781 Z M 495.734375 215.390625 L 495.734375 264.90625 L 482.671875 265.378906 C 450.730469 266.804688 419.859375 274.761719 393.378906 288.414062 L 381.980469 294.351562 L 377.351562 291.976562 C 372.125 289.367188 372.125 289.128906 375.09375 275.472656 C 387.324219 220.734375 429.953125 179.058594 486.234375 166.828125 C 490.152344 165.996094 493.953125 165.402344 494.546875 165.519531 C 495.257812 165.757812 495.734375 183.332031 495.734375 215.390625 Z M 290.910156 302.78125 C 299.101562 304.089844 310.621094 306.34375 316.4375 308.007812 C 328.667969 311.332031 346.714844 317.980469 346.714844 319.289062 C 346.714844 319.644531 342.679688 324.035156 337.691406 328.90625 C 331.042969 335.554688 314.417969 355.148438 312.875 358.234375 C 312.875 358.351562 309.433594 357.519531 305.394531 356.214844 C 291.148438 351.820312 276.898438 349.921875 257.070312 349.921875 C 226.316406 349.804688 203.398438 355.265625 175.257812 369.515625 C 131.207031 391.597656 97.601562 433.632812 84.660156 483.148438 L 81.574219 495.140625 L 56.757812 495.140625 C 43.101562 495.140625 32.058594 494.664062 32.058594 494.070312 C 32.058594 489.796875 36.570312 470.679688 40.609375 458.332031 C 56.402344 408.933594 88.222656 367.140625 132.273438 337.929688 C 160.652344 319.050781 190.457031 307.652344 225.007812 302.308594 C 241.632812 299.816406 273.21875 299.933594 290.910156 302.78125 Z M 496.089844 434.820312 L 496.328125 495.140625 L 384.832031 495.140625 L 384 488.253906 C 381.863281 471.390625 387.917969 445.507812 398.011719 427.933594 C 416.773438 395.519531 453.9375 373.433594 488.015625 374.382812 L 495.734375 374.621094 Z M 284.257812 388.867188 C 288.773438 389.816406 292.691406 390.886719 293.046875 391.125 C 293.402344 391.480469 291.621094 396.941406 289.246094 403.355469 C 279.390625 429.714844 275.472656 450.96875 275.472656 477.566406 L 275.472656 495.140625 L 197.699219 495.140625 C 133.582031 495.140625 119.925781 494.902344 119.925781 493.59375 C 119.925781 491.222656 124.320312 478.160156 127.644531 470.796875 C 141.890625 438.5 171.457031 409.765625 203.875 396.703125 C 214.085938 392.550781 228.570312 388.628906 239.257812 387.207031 C 249.824219 385.78125 273.574219 386.613281 284.257812 388.867188 Z M 284.257812 388.867188 "/>
<path style=" stroke:none;fill-rule:nonzero;fill:rgb(0%,0%,0%);fill-opacity:1;" d="M 209.574219 104.132812 C 208.265625 104.371094 201.617188 105.675781 194.730469 106.984375 C 137.972656 118.144531 90.121094 160.773438 71.242188 217.054688 C 67.917969 227.027344 65.070312 240.683594 63.523438 253.742188 L 62.8125 260.035156 L 89.765625 260.035156 L 91.191406 249.351562 C 97.246094 204.703125 127.289062 163.976562 169.203125 143.671875 C 194.851562 131.207031 226.195312 127.167969 254.457031 132.394531 L 258.851562 133.222656 L 258.851562 106.035156 L 250.65625 104.609375 C 242.820312 103.421875 214.796875 102.945312 209.574219 104.132812 Z M 209.574219 104.132812 "/>
<path style=" stroke:none;fill-rule:nonzero;fill:rgb(0%,0%,0%);fill-opacity:1;" d="M 208.386719 155.074219 C 159.820312 163.621094 120.757812 204.585938 114.464844 253.742188 L 113.632812 260.035156 L 133.816406 260.035156 L 135.242188 252.082031 C 140.585938 223.226562 160.535156 196.867188 187.011719 183.925781 C 200.429688 177.394531 216.222656 173.359375 228.570312 173.359375 C 232.488281 173.359375 240.800781 174.425781 246.976562 175.734375 C 253.148438 177.039062 258.375 178.109375 258.613281 178.109375 C 258.730469 178.109375 258.851562 173.359375 258.851562 167.660156 L 258.851562 157.089844 L 247.808594 155.191406 C 234.628906 152.816406 221.445312 152.816406 208.386719 155.074219 Z M 208.386719 155.074219 "/>
</g>
</svg>
